# xmcd
#
# Track frame offsets: 
#        150
#        17166
#        34944
#        49145
#        66833
#        89206
#        106762
#        125036
#        142545
#        157000
#        172676
#        190840
#        208535
#        225820
#        245794
#
# Disc length: 3495 seconds
#
# Revision: 1
# Processed by: cddbd v1.5.2PL0 Copyright (c) Steve Scherf et al.
# Submitted via: ExactAudioCopyFreeDBPlugin 1.0
#
DISCID=c60da50f
DTITLE=Hoffmann, Guido - Zwei Fremde
DYEAR=2003
DGENRE=Deutsche Schlager
TTITLE0=Zwei Fremde
TTITLE1=Ruf mich an
TTITLE2=Was wird aus den Rosen
TTITLE3=Mittendrin im Leben
TTITLE4=La Provence und du
TTITLE5=Sie war da, als ich dich rief
TTITLE6=Wege meiner Kindheit
TTITLE7=Ganz in Gedanken
TTITLE8=Indianer (Lied für einen Freund)
TTITLE9=Was ist los mit meinen Träumen
TTITLE10=Als ob der Himmel brannte
TTITLE11=Im Süden meines Herzens
TTITLE12=Herbstwind
TTITLE13=Bis ans Ende meiner Träume
TTITLE14=Jerusalem (Version 2003)
EXTD=
EXTT0=
EXTT1=
EXTT2=
EXTT3=
EXTT4=
EXTT5=
EXTT6=
EXTT7=
EXTT8=
EXTT9=
EXTT10=
EXTT11=
EXTT12=
EXTT13=
EXTT14=
PLAYORDER=
